<svg width="21" height="21" viewBox="0 0 21 21" fill="none" xmlns="http://www.w3.org/2000/svg">
<rect width="21" height="21" rx="6" fill="#78BEFF"/>
<g clip-path="url(#clip0_248_136)">
<path d="M15.4743 5.52615C15.1627 5.21503 14.7404 5.04028 14.3 5.04028C13.8597 5.04028 13.4374 5.21503 13.1258 5.52615L5.67147 12.9805C5.458 13.1927 5.28874 13.4452 5.17349 13.7233C5.05823 14.0014 4.99927 14.2996 5.00001 14.6007V15.5416C5.00001 15.6632 5.0483 15.7798 5.13425 15.8657C5.2202 15.9517 5.33678 16 5.45834 16H6.3993C6.70031 16.0008 6.99851 15.942 7.27662 15.8268C7.55473 15.7116 7.80723 15.5424 8.01951 15.329L15.4743 7.87419C15.7853 7.56261 15.9599 7.14038 15.9599 6.70017C15.9599 6.25995 15.7853 5.83772 15.4743 5.52615V5.52615ZM7.37142 14.6809C7.11292 14.9377 6.76366 15.0823 6.3993 15.0833H5.91667V14.6007C5.91621 14.4201 5.95158 14.2411 6.02073 14.0743C6.08989 13.9074 6.19145 13.7559 6.31955 13.6286L11.9768 7.97135L13.0309 9.02552L7.37142 14.6809ZM14.8258 7.2261L13.6772 8.37515L12.623 7.32327L13.772 6.17423C13.8413 6.10516 13.9234 6.0504 14.0138 6.01308C14.1042 5.97576 14.201 5.95661 14.2988 5.95671C14.3966 5.95682 14.4934 5.97619 14.5837 6.0137C14.674 6.05122 14.756 6.10616 14.8251 6.17537C14.8941 6.24459 14.9489 6.32674 14.9862 6.41712C15.0235 6.50749 15.0427 6.60434 15.0426 6.70212C15.0425 6.7999 15.0231 6.89671 14.9856 6.98701C14.9481 7.0773 14.8931 7.15933 14.8239 7.2284L14.8258 7.2261Z" fill="white"/>
</g>
<defs>
<clipPath id="clip0_248_136">
<rect width="11" height="11" fill="white" transform="translate(5 5)"/>
</clipPath>
</defs>
</svg>
