<svg width="21" height="21" viewBox="0 0 21 21" fill="none" xmlns="http://www.w3.org/2000/svg">
<rect width="21" height="21" rx="6" fill="#FF7878"/>
<g clip-path="url(#clip0_209_184)">
<path d="M14.6251 6.83333H13.2042C13.0979 6.31606 12.8164 5.85128 12.4073 5.51733C11.9982 5.18337 11.4865 5.00067 10.9584 5L10.0417 5C9.51365 5.00067 9.00194 5.18337 8.59284 5.51733C8.18375 5.85128 7.90229 6.31606 7.79591 6.83333H6.37508C6.25352 6.83333 6.13694 6.88162 6.05099 6.96758C5.96504 7.05353 5.91675 7.17011 5.91675 7.29167C5.91675 7.41322 5.96504 7.5298 6.05099 7.61576C6.13694 7.70171 6.25352 7.75 6.37508 7.75H6.83341V13.7083C6.83414 14.3159 7.07582 14.8984 7.50543 15.328C7.93505 15.7576 8.51752 15.9993 9.12508 16H11.8751C12.4826 15.9993 13.0651 15.7576 13.4947 15.328C13.9243 14.8984 14.166 14.3159 14.1667 13.7083V7.75H14.6251C14.7466 7.75 14.8632 7.70171 14.9492 7.61576C15.0351 7.5298 15.0834 7.41322 15.0834 7.29167C15.0834 7.17011 15.0351 7.05353 14.9492 6.96758C14.8632 6.88162 14.7466 6.83333 14.6251 6.83333ZM10.0417 5.91667H10.9584C11.2427 5.91701 11.5199 6.0053 11.7521 6.16941C11.9842 6.33353 12.1599 6.56543 12.255 6.83333H8.74512C8.84027 6.56543 9.01595 6.33353 9.24809 6.16941C9.48023 6.0053 9.75746 5.91701 10.0417 5.91667ZM13.2501 13.7083C13.2501 14.073 13.1052 14.4227 12.8474 14.6806C12.5895 14.9385 12.2398 15.0833 11.8751 15.0833H9.12508C8.76041 15.0833 8.41067 14.9385 8.15281 14.6806C7.89495 14.4227 7.75008 14.073 7.75008 13.7083V7.75H13.2501V13.7083Z" fill="white"/>
<path d="M9.58333 13.2497C9.70489 13.2497 9.82147 13.2014 9.90742 13.1155C9.99338 13.0295 10.0417 12.913 10.0417 12.7914V10.0414C10.0417 9.91984 9.99338 9.80327 9.90742 9.71731C9.82147 9.63136 9.70489 9.58307 9.58333 9.58307C9.46178 9.58307 9.3452 9.63136 9.25924 9.71731C9.17329 9.80327 9.125 9.91984 9.125 10.0414V12.7914C9.125 12.913 9.17329 13.0295 9.25924 13.1155C9.3452 13.2014 9.46178 13.2497 9.58333 13.2497Z" fill="white"/>
<path d="M11.4166 13.2497C11.5381 13.2497 11.6547 13.2014 11.7407 13.1155C11.8266 13.0295 11.8749 12.913 11.8749 12.7914V10.0414C11.8749 9.91984 11.8266 9.80327 11.7407 9.71731C11.6547 9.63136 11.5381 9.58307 11.4166 9.58307C11.295 9.58307 11.1785 9.63136 11.0925 9.71731C11.0065 9.80327 10.9583 9.91984 10.9583 10.0414V12.7914C10.9583 12.913 11.0065 13.0295 11.0925 13.1155C11.1785 13.2014 11.295 13.2497 11.4166 13.2497Z" fill="white"/>
</g>
<defs>
<clipPath id="clip0_209_184">
<rect width="11" height="11" fill="white" transform="translate(5 5)"/>
</clipPath>
</defs>
</svg>
